<svg xmlns="http://www.w3.org/2000/svg" viewBox="0 0 320 240" width="480" height="360">
  <defs>
    <style>
      /* Cycle through 3 frames: normal → high-rising → low-falling */
      @keyframes show3 {
        0%       { opacity:1 }
        30%      { opacity:1 }
        33.4%    { opacity:0 }
        99.9%    { opacity:0 }
        100%     { opacity:1 }
      }
      @keyframes show3b {
        0%       { opacity:0 }
        33.3%    { opacity:0 }
        33.4%    { opacity:1 }
        63%      { opacity:1 }
        66.7%    { opacity:0 }
        100%     { opacity:0 }
      }
      @keyframes show3c {
        0%       { opacity:0 }
        66.6%    { opacity:0 }
        66.7%    { opacity:1 }
        96%      { opacity:1 }
        99.9%    { opacity:0 }
        100%     { opacity:0 }
      }
      .f0 { animation: show3  9s 0s infinite; }
      .f1 { animation: show3b 9s 0s infinite; }
      .f2 { animation: show3c 9s 0s infinite; }

      /* Blink the live dot */
      @keyframes blink {
        0%,49%  { opacity:1 }
        50%,100%{ opacity:0.2 }
      }
      .live-dot { animation: blink 1s ease-in-out infinite; }
    </style>
  </defs>

  <!-- Screen background -->
  <rect width="320" height="240" fill="#000010"/>

  <!-- ════════════════════════════════════════════
       FRAME 0  –  8.9 mmol/L, trending up ↗
       ════════════════════════════════════════════ -->
  <g class="f0">
    <!-- Delta top-left -->
    <text x="8" y="22" font-family="monospace" font-size="18" fill="#00dd00">+0.3</text>

    <!-- Main BG value – large, 7-seg style green -->
    <text x="160" y="72" font-family="monospace" font-size="68" font-weight="bold"
          fill="#00ee00" text-anchor="middle" letter-spacing="4">8.9</text>

    <!-- Trend arrow ↗ top-right -->
    <text x="268" y="62" font-family="sans-serif" font-size="52" fill="#ccee00"
          text-anchor="middle">↗</text>

    <!-- mmol/L label -->
    <text x="160" y="92" font-family="monospace" font-size="14" fill="#aaaaaa"
          text-anchor="middle">mmol/L</text>

    <!-- IoB / CoB / Bolus row -->
    <text x="8"   y="112" font-family="monospace" font-size="13" fill="#00cccc">IoB:5.4U  CoB:37g</text>
    <text x="260" y="112" font-family="monospace" font-size="13" fill="#aaaaaa" text-anchor="end">0.6U 4m</text>

    <!-- Graph box -->
    <rect x="4" y="120" width="312" height="116" fill="#000820" stroke="#2244aa" stroke-width="1.5"/>

    <!-- High threshold line (red, ~10.0 mmol/L) -->
    <line x1="4" y1="140" x2="316" y2="140" stroke="#cc2222" stroke-width="1.2"/>
    <!-- Low threshold line (blue, ~3.9 mmol/L) -->
    <line x1="4" y1="218" x2="316" y2="218" stroke="#2255cc" stroke-width="1.2"/>

    <!-- Glucose dots — moderate curve with slight dip and rise to ~8.9 -->
    <!-- 36 points × 5min = 3 hours; x: 10..310 step ~8.4, y maps ~3.9(218)..10.0(140) -->
    <!-- Curve: starts ~6.5, dips to ~5.2, then rises to 8.9 -->
    <polyline
      points="10,182  18,183  27,185  35,187  44,188  52,190  61,192  69,195
              78,198  86,200  94,201  103,200  111,198  120,195  128,193  137,192
              145,191  154,190  163,189  171,187  180,185  188,183  197,181  205,179
              214,176  222,174  230,172  239,170  247,168  256,167  264,165  273,163
              281,162  290,161  298,160  307,158"
      fill="none" stroke="#00aa00" stroke-width="0.5" opacity="0.3"/>

    <!-- Dots on top of polyline -->
    <circle cx="10"  cy="182" r="2.5" fill="#00ee00"/>
    <circle cx="18"  cy="183" r="2.5" fill="#00ee00"/>
    <circle cx="27"  cy="185" r="2.5" fill="#00ee00"/>
    <circle cx="35"  cy="187" r="2.5" fill="#00ee00"/>
    <circle cx="44"  cy="188" r="2.5" fill="#00ee00"/>
    <circle cx="52"  cy="190" r="2.5" fill="#00ee00"/>
    <circle cx="61"  cy="192" r="2.5" fill="#00ee00"/>
    <circle cx="69"  cy="195" r="2.5" fill="#00ee00"/>
    <circle cx="78"  cy="198" r="2.5" fill="#00ee00"/>
    <circle cx="86"  cy="200" r="2.5" fill="#00ee00"/>
    <circle cx="94"  cy="201" r="2.5" fill="#00ee00"/>
    <circle cx="103" cy="200" r="2.5" fill="#00ee00"/>
    <circle cx="111" cy="198" r="2.5" fill="#00ee00"/>
    <circle cx="120" cy="195" r="2.5" fill="#00ee00"/>
    <circle cx="128" cy="193" r="2.5" fill="#00ee00"/>
    <circle cx="137" cy="192" r="2.5" fill="#00ee00"/>
    <circle cx="145" cy="191" r="2.5" fill="#00ee00"/>
    <circle cx="154" cy="190" r="2.5" fill="#00ee00"/>
    <circle cx="163" cy="189" r="2.5" fill="#00ee00"/>
    <circle cx="171" cy="187" r="2.5" fill="#00ee00"/>
    <circle cx="180" cy="185" r="2.5" fill="#00ee00"/>
    <circle cx="188" cy="183" r="2.5" fill="#00ee00"/>
    <circle cx="197" cy="181" r="2.5" fill="#00ee00"/>
    <circle cx="205" cy="179" r="2.5" fill="#00ee00"/>
    <circle cx="214" cy="176" r="2.5" fill="#00ee00"/>
    <circle cx="222" cy="174" r="2.5" fill="#00ee00"/>
    <circle cx="230" cy="172" r="2.5" fill="#00ee00"/>
    <circle cx="239" cy="170" r="2.5" fill="#00ee00"/>
    <circle cx="247" cy="168" r="2.5" fill="#00ee00"/>
    <circle cx="256" cy="167" r="2.5" fill="#00ee00"/>
    <circle cx="264" cy="165" r="2.5" fill="#00ee00"/>
    <circle cx="273" cy="163" r="2.5" fill="#00ee00"/>
    <circle cx="281" cy="162" r="2.5" fill="#00ee00"/>
    <circle cx="290" cy="161" r="2.5" fill="#00ee00"/>
    <circle cx="298" cy="160" r="2.5" fill="#00ee00"/>
    <!-- Live dot blinks -->
    <circle cx="307" cy="158" r="3.5" fill="#00ff00" class="live-dot"/>
  </g>

  <!-- ════════════════════════════════════════════
       FRAME 1  –  11.8 mmol/L, HIGH ↑↑
       ════════════════════════════════════════════ -->
  <g class="f1">
    <text x="8" y="22" font-family="monospace" font-size="18" fill="#ff4444">+0.9</text>

    <text x="160" y="72" font-family="monospace" font-size="68" font-weight="bold"
          fill="#ff3333" text-anchor="middle" letter-spacing="4">11.8</text>

    <text x="268" y="62" font-family="sans-serif" font-size="52" fill="#ff5555"
          text-anchor="middle">↑↑</text>

    <text x="160" y="92" font-family="monospace" font-size="14" fill="#aaaaaa"
          text-anchor="middle">mmol/L</text>

    <!-- Alarm label -->
    <text x="8" y="112" font-family="monospace" font-size="13" fill="#ff6600">⚠ HIGH  IoB:0.8U  CoB:52g</text>
    <text x="260" y="112" font-family="monospace" font-size="13" fill="#aaaaaa" text-anchor="end">4.0U 2m</text>

    <rect x="4" y="120" width="312" height="116" fill="#160010" stroke="#882222" stroke-width="1.5"/>
    <line x1="4" y1="140" x2="316" y2="140" stroke="#cc2222" stroke-width="1.2"/>
    <line x1="4" y1="218" x2="316" y2="218" stroke="#2255cc" stroke-width="1.2"/>

    <!-- Curve rising above red threshold -->
    <polyline
      points="10,192  18,190  27,188  35,186  44,184  52,182  61,179  69,176
              78,174  86,172  94,170  103,168  111,166  120,163  128,161  137,158
              145,156  154,154  163,151  171,149  180,147  188,144  197,142  205,140
              214,138  222,136  230,134  239,132  247,130  256,129  264,128  273,127
              281,126  290,126  298,125  307,125"
      fill="none" stroke="#aa0000" stroke-width="0.5" opacity="0.3"/>

    <circle cx="10"  cy="192" r="2.5" fill="#ff4444"/>
    <circle cx="18"  cy="190" r="2.5" fill="#ff4444"/>
    <circle cx="27"  cy="188" r="2.5" fill="#ff4444"/>
    <circle cx="35"  cy="186" r="2.5" fill="#ff4444"/>
    <circle cx="44"  cy="184" r="2.5" fill="#ff4444"/>
    <circle cx="52"  cy="182" r="2.5" fill="#ff4444"/>
    <circle cx="61"  cy="179" r="2.5" fill="#ff4444"/>
    <circle cx="69"  cy="176" r="2.5" fill="#ff4444"/>
    <circle cx="78"  cy="174" r="2.5" fill="#ff4444"/>
    <circle cx="86"  cy="172" r="2.5" fill="#ff4444"/>
    <circle cx="94"  cy="170" r="2.5" fill="#ff4444"/>
    <circle cx="103" cy="168" r="2.5" fill="#ff4444"/>
    <circle cx="111" cy="166" r="2.5" fill="#ff4444"/>
    <circle cx="120" cy="163" r="2.5" fill="#ff4444"/>
    <circle cx="128" cy="161" r="2.5" fill="#ff4444"/>
    <circle cx="137" cy="158" r="2.5" fill="#ff4444"/>
    <circle cx="145" cy="156" r="2.5" fill="#ff4444"/>
    <circle cx="154" cy="154" r="2.5" fill="#ff4444"/>
    <circle cx="163" cy="151" r="2.5" fill="#ff4444"/>
    <circle cx="171" cy="149" r="2.5" fill="#ff4444"/>
    <circle cx="180" cy="147" r="2.5" fill="#ff4444"/>
    <circle cx="188" cy="144" r="2.5" fill="#ff4444"/>
    <circle cx="197" cy="142" r="2.5" fill="#ff4444"/>
    <circle cx="205" cy="140" r="2.5" fill="#ff4444"/>
    <circle cx="214" cy="138" r="2.5" fill="#ff4444"/>
    <circle cx="222" cy="136" r="2.5" fill="#ff4444"/>
    <circle cx="230" cy="134" r="2.5" fill="#ff4444"/>
    <circle cx="239" cy="132" r="2.5" fill="#ff4444"/>
    <circle cx="247" cy="130" r="2.5" fill="#ff4444"/>
    <circle cx="256" cy="129" r="2.5" fill="#ff4444"/>
    <circle cx="264" cy="128" r="2.5" fill="#ff4444"/>
    <circle cx="273" cy="127" r="2.5" fill="#ff4444"/>
    <circle cx="281" cy="126" r="2.5" fill="#ff4444"/>
    <circle cx="290" cy="126" r="2.5" fill="#ff4444"/>
    <circle cx="298" cy="125" r="2.5" fill="#ff4444"/>
    <circle cx="307" cy="125" r="3.5" fill="#ff2222" class="live-dot"/>
  </g>

  <!-- ════════════════════════════════════════════
       FRAME 2  –  4.1 mmol/L, LOW ↓
       ════════════════════════════════════════════ -->
  <g class="f2">
    <text x="8" y="22" font-family="monospace" font-size="18" fill="#ffaa00">-0.4</text>

    <text x="160" y="72" font-family="monospace" font-size="68" font-weight="bold"
          fill="#ffcc00" text-anchor="middle" letter-spacing="4">4.1</text>

    <text x="268" y="62" font-family="sans-serif" font-size="52" fill="#ffaa00"
          text-anchor="middle">↓</text>

    <text x="160" y="92" font-family="monospace" font-size="14" fill="#aaaaaa"
          text-anchor="middle">mmol/L</text>

    <text x="8" y="112" font-family="monospace" font-size="13" fill="#ffaa00">⚠ LOW  IoB:2.1U  CoB:8g</text>
    <text x="260" y="112" font-family="monospace" font-size="13" fill="#aaaaaa" text-anchor="end">1.5U 18m</text>

    <rect x="4" y="120" width="312" height="116" fill="#0a0800" stroke="#886600" stroke-width="1.5"/>
    <line x1="4" y1="140" x2="316" y2="140" stroke="#cc2222" stroke-width="1.2"/>
    <line x1="4" y1="218" x2="316" y2="218" stroke="#2255cc" stroke-width="1.2"/>

    <!-- Curve dropping toward blue threshold -->
    <polyline
      points="10,175  18,174  27,173  35,172  44,171  52,170  61,169  69,168
              78,167  86,166  94,165  103,165  111,166  120,167  128,168  137,169
              145,171  154,172  163,174  171,176  180,178  188,180  197,182  205,184
              214,186  222,188  230,190  239,193  247,196  256,198  264,201  273,204
              281,207  290,210  298,212  307,214"
      fill="none" stroke="#996600" stroke-width="0.5" opacity="0.3"/>

    <circle cx="10"  cy="175" r="2.5" fill="#ffcc00"/>
    <circle cx="18"  cy="174" r="2.5" fill="#ffcc00"/>
    <circle cx="27"  cy="173" r="2.5" fill="#ffcc00"/>
    <circle cx="35"  cy="172" r="2.5" fill="#ffcc00"/>
    <circle cx="44"  cy="171" r="2.5" fill="#ffcc00"/>
    <circle cx="52"  cy="170" r="2.5" fill="#ffcc00"/>
    <circle cx="61"  cy="169" r="2.5" fill="#ffcc00"/>
    <circle cx="69"  cy="168" r="2.5" fill="#ffcc00"/>
    <circle cx="78"  cy="167" r="2.5" fill="#ffcc00"/>
    <circle cx="86"  cy="166" r="2.5" fill="#ffcc00"/>
    <circle cx="94"  cy="165" r="2.5" fill="#ffcc00"/>
    <circle cx="103" cy="165" r="2.5" fill="#ffcc00"/>
    <circle cx="111" cy="166" r="2.5" fill="#ffcc00"/>
    <circle cx="120" cy="167" r="2.5" fill="#ffcc00"/>
    <circle cx="128" cy="168" r="2.5" fill="#ffcc00"/>
    <circle cx="137" cy="169" r="2.5" fill="#ffcc00"/>
    <circle cx="145" cy="171" r="2.5" fill="#ffcc00"/>
    <circle cx="154" cy="172" r="2.5" fill="#ffcc00"/>
    <circle cx="163" cy="174" r="2.5" fill="#ffcc00"/>
    <circle cx="171" cy="176" r="2.5" fill="#ffcc00"/>
    <circle cx="180" cy="178" r="2.5" fill="#ffcc00"/>
    <circle cx="188" cy="180" r="2.5" fill="#ffcc00"/>
    <circle cx="197" cy="182" r="2.5" fill="#ffcc00"/>
    <circle cx="205" cy="184" r="2.5" fill="#ffcc00"/>
    <circle cx="214" cy="186" r="2.5" fill="#ffcc00"/>
    <circle cx="222" cy="188" r="2.5" fill="#ffcc00"/>
    <circle cx="230" cy="190" r="2.5" fill="#ffcc00"/>
    <circle cx="239" cy="193" r="2.5" fill="#ffcc00"/>
    <circle cx="247" cy="196" r="2.5" fill="#ffcc00"/>
    <circle cx="256" cy="198" r="2.5" fill="#ffcc00"/>
    <circle cx="264" cy="201" r="2.5" fill="#ffcc00"/>
    <circle cx="273" cy="204" r="2.5" fill="#ffcc00"/>
    <circle cx="281" cy="207" r="2.5" fill="#ffcc00"/>
    <circle cx="290" cy="210" r="2.5" fill="#ffcc00"/>
    <circle cx="298" cy="212" r="2.5" fill="#ffcc00"/>
    <circle cx="307" cy="214" r="3.5" fill="#ffee00" class="live-dot"/>
  </g>

</svg>
